<svg xmlns="http://www.w3.org/2000/svg" xmlns:xlink="http://www.w3.org/1999/xlink" width="200" zoomAndPan="magnify" viewBox="0 0 150 149.999998" height="200" preserveAspectRatio="xMidYMid meet" version="1.0"><defs><clipPath id="ad335d4f56"><path d="M 21.75 0 L 128.25 0 C 134.019531 0 139.550781 2.292969 143.628906 6.371094 C 147.707031 10.449219 150 15.980469 150 21.75 L 150 128.25 C 150 134.019531 147.707031 139.550781 143.628906 143.628906 C 139.550781 147.707031 134.019531 150 128.25 150 L 21.75 150 C 15.980469 150 10.449219 147.707031 6.371094 143.628906 C 2.292969 139.550781 0 134.019531 0 128.25 L 0 21.75 C 0 15.980469 2.292969 10.449219 6.371094 6.371094 C 10.449219 2.292969 15.980469 0 21.75 0 Z M 21.75 0 " clip-rule="nonzero"/></clipPath><clipPath id="1736fbe93f"><path d="M 16 2 L 134.851562 2 L 134.851562 131 L 16 131 Z M 16 2 " clip-rule="nonzero"/></clipPath><clipPath id="ba6171b23c"><path d="M 42 101 L 134.851562 101 L 134.851562 148 L 42 148 Z M 42 101 " clip-rule="nonzero"/></clipPath></defs><g clip-path="url(#ad335d4f56)"><rect x="-15" width="180" fill="#fac44e" y="-15" height="179.999997" fill-opacity="1"/></g><path stroke-linecap="butt" transform="matrix(0.75, 0, 0, 0.75, -40.829502, -45.016325)" fill="none" stroke-linejoin="miter" d="M 139.142469 195.42282 C 137.658094 196.464486 136.173719 197.542611 134.689344 198.651987 C 122.720593 207.620737 114.725801 219.375946 110.710176 233.912405 " stroke="#8e7ffe" stroke-width="2" stroke-opacity="1" stroke-miterlimit="4"/><g clip-path="url(#1736fbe93f)"><path fill="#ffffff" d="M 63.527344 101.550781 C 62.414062 102.332031 61.300781 103.140625 60.1875 103.972656 C 51.210938 110.699219 45.214844 119.515625 42.203125 130.417969 C 36.558594 125.6875 31.75 120.238281 27.78125 114.066406 C 19.152344 100.652344 15.359375 85.953125 16.398438 69.96875 C 18.363281 39.75 39.359375 13.90625 68.269531 5.40625 C 81.578125 1.492188 95.296875 1.492188 108.738281 5.355469 C 117.289062 7.816406 125.421875 11.980469 133.140625 17.851562 C 134.972656 19.242188 134.273438 21.128906 133.644531 22.894531 C 130.195312 32.582031 124.050781 40.554688 115.214844 46.816406 C 114.246094 47.503906 113.246094 47.519531 112.222656 46.855469 C 110.308594 45.628906 108.714844 44.160156 106.652344 43.046875 C 103.523438 41.355469 100.710938 40.175781 98.222656 39.519531 C 94.4375 38.519531 89.9375 38.183594 84.722656 38.511719 C 81.726562 38.703125 78.773438 39.375 75.859375 40.53125 C 67.070312 44.007812 60.488281 49.820312 56.109375 57.972656 C 54.820312 60.367188 53.75 63.269531 52.902344 66.679688 C 52.21875 69.441406 51.914062 72.335938 51.988281 75.367188 C 52.242188 85.515625 56.085938 94.246094 63.527344 101.550781 Z M 63.527344 101.550781 " fill-opacity="1" fill-rule="nonzero"/></g><path fill="#f1eff0" d="M 111.0625 74.890625 C 111.0625 75.625 111.023438 76.359375 110.953125 77.09375 C 110.878906 77.824219 110.773438 78.554688 110.628906 79.277344 C 110.484375 79.996094 110.304688 80.710938 110.09375 81.414062 C 109.878906 82.121094 109.632812 82.8125 109.347656 83.492188 C 109.066406 84.171875 108.753906 84.839844 108.40625 85.488281 C 108.058594 86.136719 107.679688 86.769531 107.273438 87.378906 C 106.863281 87.992188 106.425781 88.582031 105.957031 89.152344 C 105.488281 89.722656 104.996094 90.265625 104.476562 90.789062 C 103.953125 91.308594 103.410156 91.800781 102.839844 92.269531 C 102.269531 92.738281 101.679688 93.175781 101.070312 93.582031 C 100.457031 93.992188 99.824219 94.371094 99.175781 94.71875 C 98.527344 95.066406 97.863281 95.378906 97.179688 95.660156 C 96.5 95.945312 95.808594 96.191406 95.105469 96.40625 C 94.398438 96.617188 93.6875 96.796875 92.964844 96.941406 C 92.242188 97.085938 91.511719 97.191406 90.78125 97.265625 C 90.046875 97.335938 89.3125 97.375 88.578125 97.375 C 87.839844 97.375 87.105469 97.335938 86.375 97.265625 C 85.640625 97.191406 84.914062 97.085938 84.191406 96.941406 C 83.46875 96.796875 82.753906 96.617188 82.050781 96.40625 C 81.34375 96.191406 80.652344 95.945312 79.972656 95.660156 C 79.292969 95.378906 78.628906 95.066406 77.976562 94.71875 C 77.328125 94.371094 76.699219 93.992188 76.085938 93.582031 C 75.472656 93.175781 74.882812 92.738281 74.3125 92.269531 C 73.746094 91.800781 73.199219 91.308594 72.679688 90.789062 C 72.15625 90.265625 71.664062 89.722656 71.195312 89.152344 C 70.730469 88.582031 70.292969 87.992188 69.882812 87.378906 C 69.472656 86.769531 69.09375 86.136719 68.75 85.488281 C 68.402344 84.839844 68.085938 84.171875 67.804688 83.492188 C 67.523438 82.8125 67.273438 82.121094 67.0625 81.414062 C 66.847656 80.710938 66.667969 79.996094 66.523438 79.277344 C 66.382812 78.554688 66.273438 77.824219 66.203125 77.09375 C 66.128906 76.359375 66.09375 75.625 66.09375 74.890625 C 66.09375 74.152344 66.128906 73.417969 66.203125 72.683594 C 66.273438 71.953125 66.382812 71.226562 66.523438 70.503906 C 66.667969 69.78125 66.847656 69.066406 67.0625 68.363281 C 67.273438 67.65625 67.523438 66.964844 67.804688 66.285156 C 68.085938 65.605469 68.402344 64.941406 68.75 64.289062 C 69.09375 63.640625 69.472656 63.011719 69.882812 62.398438 C 70.292969 61.785156 70.730469 61.195312 71.195312 60.625 C 71.664062 60.054688 72.15625 59.511719 72.679688 58.992188 C 73.199219 58.46875 73.746094 57.976562 74.3125 57.507812 C 74.882812 57.042969 75.472656 56.605469 76.085938 56.195312 C 76.699219 55.785156 77.328125 55.40625 77.976562 55.058594 C 78.628906 54.714844 79.292969 54.398438 79.972656 54.117188 C 80.652344 53.835938 81.34375 53.585938 82.050781 53.375 C 82.753906 53.160156 83.46875 52.980469 84.191406 52.835938 C 84.914062 52.695312 85.640625 52.585938 86.375 52.515625 C 87.105469 52.441406 87.839844 52.40625 88.578125 52.40625 C 89.3125 52.40625 90.046875 52.441406 90.78125 52.515625 C 91.511719 52.585938 92.242188 52.695312 92.964844 52.835938 C 93.6875 52.980469 94.398438 53.160156 95.105469 53.375 C 95.808594 53.585938 96.5 53.835938 97.179688 54.117188 C 97.863281 54.398438 98.527344 54.714844 99.175781 55.058594 C 99.824219 55.40625 100.457031 55.785156 101.070312 56.195312 C 101.679688 56.605469 102.269531 57.042969 102.839844 57.507812 C 103.410156 57.976562 103.953125 58.46875 104.476562 58.992188 C 104.996094 59.511719 105.488281 60.054688 105.957031 60.625 C 106.425781 61.195312 106.863281 61.785156 107.273438 62.398438 C 107.679688 63.011719 108.058594 63.640625 108.40625 64.289062 C 108.753906 64.941406 109.066406 65.605469 109.347656 66.285156 C 109.632812 66.964844 109.878906 67.65625 110.09375 68.363281 C 110.304688 69.066406 110.484375 69.78125 110.628906 70.503906 C 110.773438 71.226562 110.878906 71.953125 110.953125 72.683594 C 111.023438 73.417969 111.0625 74.152344 111.0625 74.890625 Z M 111.0625 74.890625 " fill-opacity="1" fill-rule="nonzero"/><g clip-path="url(#ba6171b23c)"><path fill="#f1eff0" d="M 63.527344 101.550781 C 64.34375 102.136719 65.148438 102.746094 65.941406 103.386719 C 74.429688 110.246094 84.882812 112.6875 95.65625 110.695312 C 101.765625 109.566406 107.324219 106.640625 112.269531 102.734375 C 113.449219 101.804688 114.421875 102.292969 115.515625 103.0625 C 124.449219 109.328125 130.652344 117.71875 134.125 128.230469 C 134.652344 129.828125 134.316406 131.078125 133.035156 132.0625 C 124.796875 138.378906 115.894531 142.726562 106.332031 145.097656 C 84.8125 150.4375 62.160156 145.890625 44.558594 132.542969 C 43.6875 131.882812 42.90625 131.175781 42.203125 130.417969 C 45.214844 119.515625 51.210938 110.699219 60.1875 103.972656 C 61.300781 103.140625 62.414062 102.332031 63.527344 101.550781 Z M 63.527344 101.550781 " fill-opacity="1" fill-rule="nonzero"/></g></svg>