<svg xmlns="http://www.w3.org/2000/svg" xmlns:xlink="http://www.w3.org/1999/xlink" width="262" zoomAndPan="magnify" viewBox="0 0 196.5 30.000001" height="40" preserveAspectRatio="xMidYMid meet" version="1.0"><defs><g/><clipPath id="6c70820e77"><path d="M 14.253906 11 L 32 11 L 32 29.03125 L 14.253906 29.03125 Z M 14.253906 11 " clip-rule="nonzero"/></clipPath><clipPath id="ca22b33b99"><path d="M 14.253906 0.0351562 L 37.476562 0.0351562 L 37.476562 26 L 14.253906 26 Z M 14.253906 0.0351562 " clip-rule="nonzero"/></clipPath><clipPath id="1fffcdd32b"><path d="M 19 19 L 37.476562 19 L 37.476562 29 L 19 29 Z M 19 19 " clip-rule="nonzero"/></clipPath></defs><g clip-path="url(#6c70820e77)"><path stroke-linecap="butt" transform="matrix(0.725806, 0, 0, 0.725806, 3.419637, -9.013659)" fill="none" stroke-linejoin="miter" d="M 27.97305 39.285489 C 27.671661 39.495385 27.375654 39.710662 27.079647 39.936704 C 24.668536 41.739656 23.064717 44.102329 22.257425 47.024725 " stroke="#8e7ffe" stroke-width="2" stroke-opacity="1" stroke-miterlimit="4"/></g><g clip-path="url(#ca22b33b99)"><path fill="#35383f" d="M 23.722656 19.5 C 23.503906 19.652344 23.289062 19.808594 23.074219 19.972656 C 21.324219 21.28125 20.160156 22.996094 19.574219 25.117188 C 18.476562 24.195312 17.539062 23.136719 16.769531 21.9375 C 15.089844 19.324219 14.351562 16.464844 14.554688 13.355469 C 14.933594 7.476562 19.019531 2.449219 24.644531 0.796875 C 27.234375 0.0351562 29.902344 0.0351562 32.519531 0.785156 C 34.179688 1.265625 35.765625 2.074219 37.265625 3.21875 C 37.621094 3.488281 37.484375 3.855469 37.363281 4.199219 C 36.691406 6.082031 35.496094 7.632812 33.777344 8.851562 C 33.589844 8.988281 33.394531 8.988281 33.195312 8.859375 C 32.824219 8.621094 32.511719 8.335938 32.113281 8.121094 C 31.503906 7.789062 30.957031 7.5625 30.472656 7.433594 C 29.734375 7.238281 28.859375 7.171875 27.84375 7.238281 C 27.261719 7.273438 26.6875 7.40625 26.121094 7.628906 C 24.410156 8.304688 23.132812 9.4375 22.277344 11.023438 C 22.027344 11.488281 21.820312 12.054688 21.65625 12.714844 C 21.523438 13.253906 21.464844 13.816406 21.476562 14.40625 C 21.527344 16.382812 22.273438 18.078125 23.722656 19.5 Z M 23.722656 19.5 " fill-opacity="1" fill-rule="nonzero"/></g><path fill="#2f3522" d="M 32.96875 14.3125 C 32.96875 14.601562 32.941406 14.886719 32.886719 15.167969 C 32.828125 15.449219 32.746094 15.722656 32.636719 15.988281 C 32.527344 16.253906 32.390625 16.503906 32.234375 16.742188 C 32.074219 16.984375 31.890625 17.203125 31.6875 17.40625 C 31.484375 17.609375 31.265625 17.792969 31.027344 17.949219 C 30.785156 18.109375 30.535156 18.246094 30.269531 18.355469 C 30.003906 18.464844 29.730469 18.546875 29.449219 18.605469 C 29.167969 18.660156 28.882812 18.6875 28.59375 18.6875 C 28.308594 18.6875 28.023438 18.660156 27.742188 18.605469 C 27.460938 18.546875 27.1875 18.464844 26.921875 18.355469 C 26.65625 18.246094 26.402344 18.109375 26.164062 17.949219 C 25.925781 17.792969 25.707031 17.609375 25.503906 17.40625 C 25.300781 17.203125 25.117188 16.984375 24.957031 16.742188 C 24.800781 16.503906 24.664062 16.253906 24.554688 15.988281 C 24.445312 15.722656 24.363281 15.449219 24.304688 15.167969 C 24.25 14.886719 24.222656 14.601562 24.222656 14.3125 C 24.222656 14.027344 24.25 13.742188 24.304688 13.460938 C 24.363281 13.179688 24.445312 12.90625 24.554688 12.640625 C 24.664062 12.375 24.800781 12.121094 24.957031 11.882812 C 25.117188 11.644531 25.300781 11.425781 25.503906 11.222656 C 25.707031 11.019531 25.925781 10.835938 26.164062 10.675781 C 26.402344 10.515625 26.65625 10.382812 26.921875 10.273438 C 27.1875 10.164062 27.460938 10.078125 27.742188 10.023438 C 28.023438 9.96875 28.308594 9.941406 28.59375 9.941406 C 28.882812 9.941406 29.167969 9.96875 29.449219 10.023438 C 29.730469 10.078125 30.003906 10.164062 30.269531 10.273438 C 30.535156 10.382812 30.785156 10.515625 31.027344 10.675781 C 31.265625 10.835938 31.484375 11.019531 31.6875 11.222656 C 31.890625 11.425781 32.074219 11.644531 32.234375 11.882812 C 32.390625 12.121094 32.527344 12.375 32.636719 12.640625 C 32.746094 12.90625 32.828125 13.179688 32.886719 13.460938 C 32.941406 13.742188 32.96875 14.027344 32.96875 14.3125 Z M 32.96875 14.3125 " fill-opacity="1" fill-rule="nonzero"/><g clip-path="url(#1fffcdd32b)"><path fill="#2f3522" d="M 23.722656 19.5 C 23.878906 19.613281 24.039062 19.734375 24.191406 19.859375 C 25.84375 21.191406 27.878906 21.667969 29.972656 21.28125 C 31.160156 21.058594 32.242188 20.492188 33.203125 19.730469 C 33.433594 19.550781 33.625 19.644531 33.835938 19.792969 C 35.574219 21.015625 36.78125 22.644531 37.457031 24.691406 C 37.558594 25.003906 37.496094 25.246094 37.246094 25.4375 C 35.640625 26.667969 33.910156 27.511719 32.050781 27.972656 C 27.863281 29.011719 23.457031 28.125 20.03125 25.53125 C 19.863281 25.402344 19.710938 25.265625 19.574219 25.117188 C 20.160156 22.996094 21.324219 21.28125 23.074219 19.972656 C 23.289062 19.808594 23.503906 19.652344 23.722656 19.5 Z M 23.722656 19.5 " fill-opacity="1" fill-rule="nonzero"/></g><g fill="#2f3522" fill-opacity="1"><g transform="translate(44.127417, 21.065428)"><g><path d="M 6.328125 -13.34375 C 7.234375 -13.34375 8.035156 -13.210938 8.734375 -12.953125 C 9.429688 -12.691406 9.78125 -12.34375 9.78125 -11.90625 C 9.78125 -11.46875 9.613281 -10.925781 9.28125 -10.28125 C 8.945312 -9.632812 8.671875 -9.3125 8.453125 -9.3125 C 8.390625 -9.3125 8.316406 -9.34375 8.234375 -9.40625 C 8.148438 -9.476562 7.957031 -9.554688 7.65625 -9.640625 C 7.363281 -9.722656 7.113281 -9.765625 6.90625 -9.765625 C 6.175781 -9.765625 5.585938 -9.503906 5.140625 -8.984375 C 4.703125 -8.472656 4.484375 -7.6875 4.484375 -6.625 C 4.484375 -5.570312 4.707031 -4.785156 5.15625 -4.265625 C 5.613281 -3.753906 6.195312 -3.5 6.90625 -3.5 C 7.195312 -3.5 7.519531 -3.539062 7.875 -3.625 C 8.226562 -3.707031 8.484375 -3.820312 8.640625 -3.96875 C 8.660156 -3.988281 8.707031 -4 8.78125 -4 C 8.851562 -4 8.992188 -3.859375 9.203125 -3.578125 C 9.410156 -3.296875 9.601562 -2.925781 9.78125 -2.46875 C 9.957031 -2.007812 10.046875 -1.65625 10.046875 -1.40625 C 10.046875 -0.914062 9.664062 -0.523438 8.90625 -0.234375 C 8.15625 0.046875 7.269531 0.1875 6.25 0.1875 C 4.59375 0.1875 3.226562 -0.394531 2.15625 -1.5625 C 1.09375 -2.726562 0.5625 -4.375 0.5625 -6.5 C 0.5625 -8.625 1.109375 -10.296875 2.203125 -11.515625 C 3.304688 -12.734375 4.679688 -13.34375 6.328125 -13.34375 Z M 6.328125 -13.34375 "/></g></g></g><g fill="#2f3522" fill-opacity="1"><g transform="translate(53.628014, 21.065428)"><g><path d="M 0.75 -1.109375 L 0.75 -12.8125 C 0.75 -13.070312 1.382812 -13.203125 2.65625 -13.203125 C 3.9375 -13.203125 4.578125 -13.070312 4.578125 -12.8125 L 4.578125 -3.59375 L 7.46875 -3.59375 C 7.695312 -3.59375 7.851562 -3.296875 7.9375 -2.703125 C 7.976562 -2.421875 8 -2.128906 8 -1.828125 C 8 -1.523438 7.976562 -1.21875 7.9375 -0.90625 C 7.832031 -0.300781 7.671875 0 7.453125 0 L 1.65625 0 C 1.375 0 1.148438 -0.109375 0.984375 -0.328125 C 0.828125 -0.554688 0.75 -0.816406 0.75 -1.109375 Z M 0.75 -1.109375 "/></g></g></g><g fill="#2f3522" fill-opacity="1"><g transform="translate(60.758012, 21.065428)"><g><path d="M 9.78125 0.03125 C 8.6875 0.03125 8.097656 -0.140625 8.015625 -0.484375 L 7.390625 -2.921875 L 4.40625 -2.921875 L 3.859375 -0.578125 C 3.785156 -0.191406 3.179688 0 2.046875 0 C 1.441406 0 0.992188 -0.03125 0.703125 -0.09375 C 0.421875 -0.164062 0.28125 -0.222656 0.28125 -0.265625 L 3.609375 -13 C 3.609375 -13.101562 4.46875 -13.15625 6.1875 -13.15625 C 7.90625 -13.15625 8.765625 -13.101562 8.765625 -13 L 12.015625 -0.25 C 12.015625 -0.15625 11.726562 -0.0820312 11.15625 -0.03125 C 10.582031 0.0078125 10.125 0.03125 9.78125 0.03125 Z M 4.875 -5.3125 L 6.84375 -5.3125 L 6 -9.203125 L 5.890625 -9.203125 Z M 4.875 -5.3125 "/></g></g></g><g fill="#2f3522" fill-opacity="1"><g transform="translate(72.027141, 21.065428)"><g><path d="M 2.1875 -3.234375 L 2.1875 -9.9375 L 0.84375 -9.9375 C 0.632812 -9.9375 0.484375 -10.203125 0.390625 -10.734375 C 0.359375 -11.003906 0.34375 -11.273438 0.34375 -11.546875 C 0.34375 -11.828125 0.359375 -12.097656 0.390625 -12.359375 C 0.484375 -12.898438 0.632812 -13.171875 0.84375 -13.171875 L 7.171875 -13.171875 C 7.378906 -13.171875 7.519531 -12.898438 7.59375 -12.359375 C 7.644531 -12.097656 7.671875 -11.828125 7.671875 -11.546875 C 7.671875 -11.273438 7.644531 -11.003906 7.59375 -10.734375 C 7.519531 -10.203125 7.378906 -9.9375 7.171875 -9.9375 L 5.90625 -9.9375 L 5.90625 -3.234375 L 7.21875 -3.234375 C 7.4375 -3.234375 7.585938 -2.960938 7.671875 -2.421875 C 7.722656 -2.160156 7.75 -1.890625 7.75 -1.609375 C 7.75 -1.335938 7.722656 -1.070312 7.671875 -0.8125 C 7.585938 -0.269531 7.4375 0 7.21875 0 L 0.890625 0 C 0.671875 0 0.523438 -0.269531 0.453125 -0.8125 C 0.398438 -1.070312 0.375 -1.335938 0.375 -1.609375 C 0.375 -1.890625 0.398438 -2.160156 0.453125 -2.421875 C 0.523438 -2.960938 0.671875 -3.234375 0.890625 -3.234375 Z M 2.1875 -3.234375 "/></g></g></g><g fill="#2f3522" fill-opacity="1"><g transform="translate(79.044265, 21.065428)"><g><path d="M 4.53125 -0.265625 C 4.53125 -0.0664062 3.9375 0.03125 2.75 0.03125 C 1.539062 0.03125 0.9375 -0.0625 0.9375 -0.25 L 0.9375 -12.515625 C 0.9375 -12.953125 1.171875 -13.171875 1.640625 -13.171875 L 5.234375 -13.171875 C 8.523438 -13.171875 10.171875 -11.882812 10.171875 -9.3125 C 10.171875 -8.53125 10.019531 -7.820312 9.71875 -7.1875 C 9.425781 -6.5625 9.003906 -6.0625 8.453125 -5.6875 L 10.8125 -1.734375 C 10.71875 -1.429688 10.394531 -1.085938 9.84375 -0.703125 C 9.082031 -0.160156 8.457031 0.109375 7.96875 0.109375 C 7.488281 0.109375 7.128906 -0.0625 6.890625 -0.40625 L 5.109375 -4.53125 L 4.53125 -4.53125 Z M 4.53125 -9.84375 L 4.53125 -7.015625 L 4.625 -7.015625 C 5.820312 -7.015625 6.421875 -7.507812 6.421875 -8.5 C 6.421875 -8.957031 6.300781 -9.296875 6.0625 -9.515625 C 5.832031 -9.734375 5.453125 -9.84375 4.921875 -9.84375 Z M 4.53125 -9.84375 "/></g></g></g><g fill="#2f3522" fill-opacity="1"><g transform="translate(89.09047, 21.065428)"><g><path d="M 0.203125 -12.921875 C 0.203125 -12.984375 0.472656 -13.039062 1.015625 -13.09375 C 1.566406 -13.15625 2.019531 -13.1875 2.375 -13.1875 C 3.757812 -13.1875 4.484375 -13.003906 4.546875 -12.640625 L 6.171875 -4.359375 L 7.6875 -12.640625 C 7.769531 -13.003906 8.550781 -13.1875 10.03125 -13.1875 C 10.394531 -13.1875 10.851562 -13.160156 11.40625 -13.109375 C 11.957031 -13.054688 12.234375 -13 12.234375 -12.9375 L 8.890625 -0.484375 C 8.847656 -0.285156 8.476562 -0.15625 7.78125 -0.09375 C 6.71875 0.0195312 5.75 0.046875 4.875 -0.015625 C 4.007812 -0.0859375 3.550781 -0.210938 3.5 -0.390625 Z M 0.203125 -12.921875 "/></g></g></g><g fill="#2f3522" fill-opacity="1"><g transform="translate(100.472489, 21.065428)"><g><path d="M 2.1875 -3.234375 L 2.1875 -9.9375 L 0.84375 -9.9375 C 0.632812 -9.9375 0.484375 -10.203125 0.390625 -10.734375 C 0.359375 -11.003906 0.34375 -11.273438 0.34375 -11.546875 C 0.34375 -11.828125 0.359375 -12.097656 0.390625 -12.359375 C 0.484375 -12.898438 0.632812 -13.171875 0.84375 -13.171875 L 7.171875 -13.171875 C 7.378906 -13.171875 7.519531 -12.898438 7.59375 -12.359375 C 7.644531 -12.097656 7.671875 -11.828125 7.671875 -11.546875 C 7.671875 -11.273438 7.644531 -11.003906 7.59375 -10.734375 C 7.519531 -10.203125 7.378906 -9.9375 7.171875 -9.9375 L 5.90625 -9.9375 L 5.90625 -3.234375 L 7.21875 -3.234375 C 7.4375 -3.234375 7.585938 -2.960938 7.671875 -2.421875 C 7.722656 -2.160156 7.75 -1.890625 7.75 -1.609375 C 7.75 -1.335938 7.722656 -1.070312 7.671875 -0.8125 C 7.585938 -0.269531 7.4375 0 7.21875 0 L 0.890625 0 C 0.671875 0 0.523438 -0.269531 0.453125 -0.8125 C 0.398438 -1.070312 0.375 -1.335938 0.375 -1.609375 C 0.375 -1.890625 0.398438 -2.160156 0.453125 -2.421875 C 0.523438 -2.960938 0.671875 -3.234375 0.890625 -3.234375 Z M 2.1875 -3.234375 "/></g></g></g><g fill="#2f3522" fill-opacity="1"><g transform="translate(107.489613, 21.065428)"><g><path d="M 7.046875 -7.9375 C 7.285156 -7.9375 7.40625 -7.5 7.40625 -6.625 C 7.40625 -6.363281 7.378906 -6.050781 7.328125 -5.6875 C 7.273438 -5.332031 7.171875 -5.15625 7.015625 -5.15625 L 4.625 -5.15625 L 4.625 -3.265625 L 8.09375 -3.265625 C 8.300781 -3.265625 8.441406 -2.992188 8.515625 -2.453125 C 8.554688 -2.210938 8.578125 -1.957031 8.578125 -1.6875 C 8.578125 -1.414062 8.539062 -1.066406 8.46875 -0.640625 C 8.394531 -0.210938 8.269531 0 8.09375 0 L 1.65625 0 C 1.175781 0 0.9375 -0.191406 0.9375 -0.578125 L 0.9375 -12.671875 C 0.9375 -13.003906 1.082031 -13.171875 1.375 -13.171875 L 8.109375 -13.171875 C 8.367188 -13.171875 8.5 -12.613281 8.5 -11.5 C 8.5 -10.394531 8.367188 -9.84375 8.109375 -9.84375 L 4.625 -9.84375 L 4.625 -7.9375 Z M 7.046875 -7.9375 "/></g></g></g><g fill="#2f3522" fill-opacity="1"><g transform="translate(115.710847, 21.065428)"><g><path d="M 0.390625 -12.984375 C 0.359375 -13.117188 0.992188 -13.1875 2.296875 -13.1875 C 3.734375 -13.1875 4.472656 -13.066406 4.515625 -12.828125 L 5.4375 -4.90625 L 7.4375 -12.921875 C 7.5 -13.109375 7.984375 -13.203125 8.890625 -13.203125 C 9.804688 -13.203125 10.296875 -13.113281 10.359375 -12.9375 L 12.328125 -4.875 L 13.40625 -12.875 C 13.4375 -13.007812 13.726562 -13.097656 14.28125 -13.140625 C 14.832031 -13.191406 15.273438 -13.21875 15.609375 -13.21875 C 16.929688 -13.21875 17.570312 -13.132812 17.53125 -12.96875 L 15.25 -0.484375 C 15.207031 -0.296875 14.851562 -0.15625 14.1875 -0.0625 C 13.519531 0.0195312 12.976562 0.0625 12.5625 0.0625 C 11.007812 0.0625 10.195312 -0.113281 10.125 -0.46875 L 8.84375 -5.640625 L 7.453125 -0.484375 C 7.398438 -0.265625 6.960938 -0.101562 6.140625 0 C 5.710938 0.0390625 5.285156 0.0625 4.859375 0.0625 L 3.65625 0 C 2.820312 -0.0820312 2.378906 -0.238281 2.328125 -0.46875 Z M 0.390625 -12.984375 "/></g></g></g><g fill="#2f3522" fill-opacity="1"><g transform="translate(132.596418, 21.065428)"><g/></g></g><g fill="#2f3522" fill-opacity="1"><g transform="translate(135.07931, 21.065428)"><g/></g></g><g fill="#2f3522" fill-opacity="1"><g transform="translate(137.562202, 21.065428)"><g/></g></g><g fill="#35383f" fill-opacity="1"><g transform="translate(140.047275, 21.065428)"><g><path d="M 0.9375 -0.859375 L 0.9375 -12.15625 C 0.9375 -12.46875 1.015625 -12.710938 1.171875 -12.890625 C 1.328125 -13.078125 1.53125 -13.171875 1.78125 -13.171875 L 4.921875 -13.171875 C 6.921875 -13.171875 8.4375 -12.664062 9.46875 -11.65625 C 10.507812 -10.65625 11.03125 -9.078125 11.03125 -6.921875 C 11.03125 -2.304688 9.054688 0 5.109375 0 L 1.90625 0 C 1.257812 0 0.9375 -0.285156 0.9375 -0.859375 Z M 4.546875 -9.59375 L 4.546875 -3.96875 C 4.546875 -3.707031 4.566406 -3.539062 4.609375 -3.46875 C 4.648438 -3.40625 4.765625 -3.375 4.953125 -3.375 C 5.640625 -3.375 6.160156 -3.628906 6.515625 -4.140625 C 6.867188 -4.648438 7.046875 -5.503906 7.046875 -6.703125 C 7.046875 -7.898438 6.859375 -8.679688 6.484375 -9.046875 C 6.117188 -9.410156 5.535156 -9.59375 4.734375 -9.59375 Z M 4.546875 -9.59375 "/></g></g></g><g fill="#35383f" fill-opacity="1"><g transform="translate(150.582658, 21.065428)"><g><path d="M 6.53125 0.1875 C 4.769531 0.1875 3.332031 -0.382812 2.21875 -1.53125 C 1.113281 -2.6875 0.5625 -4.375 0.5625 -6.59375 C 0.5625 -8.8125 1.125 -10.488281 2.25 -11.625 C 3.375 -12.769531 4.820312 -13.34375 6.59375 -13.34375 C 8.363281 -13.34375 9.796875 -12.78125 10.890625 -11.65625 C 11.984375 -10.53125 12.53125 -8.828125 12.53125 -6.546875 C 12.53125 -4.273438 11.972656 -2.582031 10.859375 -1.46875 C 9.742188 -0.363281 8.300781 0.1875 6.53125 0.1875 Z M 6.546875 -9.71875 C 5.941406 -9.71875 5.4375 -9.441406 5.03125 -8.890625 C 4.625 -8.347656 4.421875 -7.578125 4.421875 -6.578125 C 4.421875 -5.578125 4.613281 -4.8125 5 -4.28125 C 5.394531 -3.75 5.90625 -3.484375 6.53125 -3.484375 C 7.164062 -3.484375 7.679688 -3.75 8.078125 -4.28125 C 8.472656 -4.820312 8.671875 -5.59375 8.671875 -6.59375 C 8.671875 -7.601562 8.46875 -8.375 8.0625 -8.90625 C 7.65625 -9.445312 7.148438 -9.71875 6.546875 -9.71875 Z M 6.546875 -9.71875 "/></g></g></g><g fill="#35383f" fill-opacity="1"><g transform="translate(162.623179, 21.065428)"><g><path d="M 6.328125 -13.34375 C 7.234375 -13.34375 8.035156 -13.210938 8.734375 -12.953125 C 9.429688 -12.691406 9.78125 -12.34375 9.78125 -11.90625 C 9.78125 -11.46875 9.613281 -10.925781 9.28125 -10.28125 C 8.945312 -9.632812 8.671875 -9.3125 8.453125 -9.3125 C 8.390625 -9.3125 8.316406 -9.34375 8.234375 -9.40625 C 8.148438 -9.476562 7.957031 -9.554688 7.65625 -9.640625 C 7.363281 -9.722656 7.113281 -9.765625 6.90625 -9.765625 C 6.175781 -9.765625 5.585938 -9.503906 5.140625 -8.984375 C 4.703125 -8.472656 4.484375 -7.6875 4.484375 -6.625 C 4.484375 -5.570312 4.707031 -4.785156 5.15625 -4.265625 C 5.613281 -3.753906 6.195312 -3.5 6.90625 -3.5 C 7.195312 -3.5 7.519531 -3.539062 7.875 -3.625 C 8.226562 -3.707031 8.484375 -3.820312 8.640625 -3.96875 C 8.660156 -3.988281 8.707031 -4 8.78125 -4 C 8.851562 -4 8.992188 -3.859375 9.203125 -3.578125 C 9.410156 -3.296875 9.601562 -2.925781 9.78125 -2.46875 C 9.957031 -2.007812 10.046875 -1.65625 10.046875 -1.40625 C 10.046875 -0.914062 9.664062 -0.523438 8.90625 -0.234375 C 8.15625 0.046875 7.269531 0.1875 6.25 0.1875 C 4.59375 0.1875 3.226562 -0.394531 2.15625 -1.5625 C 1.09375 -2.726562 0.5625 -4.375 0.5625 -6.5 C 0.5625 -8.625 1.109375 -10.296875 2.203125 -11.515625 C 3.304688 -12.734375 4.679688 -13.34375 6.328125 -13.34375 Z M 6.328125 -13.34375 "/></g></g></g><g fill="#35383f" fill-opacity="1"><g transform="translate(172.123776, 21.065428)"><g><path d="M 1.4375 -4.59375 C 1.664062 -4.40625 2.070312 -4.144531 2.65625 -3.8125 C 3.238281 -3.488281 3.796875 -3.328125 4.328125 -3.328125 C 4.867188 -3.328125 5.140625 -3.535156 5.140625 -3.953125 C 5.140625 -4.140625 5.0625 -4.304688 4.90625 -4.453125 C 4.757812 -4.597656 4.484375 -4.765625 4.078125 -4.953125 C 3.679688 -5.140625 3.378906 -5.285156 3.171875 -5.390625 C 2.972656 -5.492188 2.707031 -5.664062 2.375 -5.90625 C 2.039062 -6.15625 1.789062 -6.410156 1.625 -6.671875 C 1.113281 -7.390625 0.859375 -8.300781 0.859375 -9.40625 C 0.859375 -10.507812 1.269531 -11.441406 2.09375 -12.203125 C 2.914062 -12.960938 3.992188 -13.34375 5.328125 -13.34375 C 6.222656 -13.34375 7.050781 -13.242188 7.8125 -13.046875 C 8.582031 -12.847656 8.984375 -12.59375 9.015625 -12.28125 C 9.015625 -12.25 9.015625 -12.210938 9.015625 -12.171875 C 9.015625 -11.734375 8.875 -11.175781 8.59375 -10.5 C 8.320312 -9.832031 8.128906 -9.460938 8.015625 -9.390625 C 7.210938 -9.804688 6.492188 -10.015625 5.859375 -10.015625 C 5.222656 -10.015625 4.90625 -9.785156 4.90625 -9.328125 C 4.90625 -9.054688 5.140625 -8.8125 5.609375 -8.59375 C 5.703125 -8.539062 5.84375 -8.472656 6.03125 -8.390625 C 6.226562 -8.304688 6.445312 -8.203125 6.6875 -8.078125 C 6.925781 -7.960938 7.1875 -7.8125 7.46875 -7.625 C 7.757812 -7.445312 8.066406 -7.207031 8.390625 -6.90625 C 9.054688 -6.28125 9.390625 -5.453125 9.390625 -4.421875 C 9.390625 -3.078125 9.019531 -1.976562 8.28125 -1.125 C 7.539062 -0.269531 6.398438 0.164062 4.859375 0.1875 C 4.097656 0.1875 3.414062 0.125 2.8125 0 C 2.207031 -0.125 1.675781 -0.367188 1.21875 -0.734375 C 0.769531 -1.097656 0.546875 -1.535156 0.546875 -2.046875 C 0.546875 -2.566406 0.640625 -3.078125 0.828125 -3.578125 C 1.015625 -4.085938 1.21875 -4.425781 1.4375 -4.59375 Z M 1.4375 -4.59375 "/></g></g></g></svg>