<svg xmlns="http://www.w3.org/2000/svg" xmlns:xlink="http://www.w3.org/1999/xlink" width="64" zoomAndPan="magnify" viewBox="0 0 48 30.000001" height="40" preserveAspectRatio="xMidYMid meet" version="1.0"><defs><clipPath id="0622772b33"><path d="M 12.414062 11 L 31 11 L 31 29.03125 L 12.414062 29.03125 Z M 12.414062 11 " clip-rule="nonzero"/></clipPath><clipPath id="3e01127520"><path d="M 12.414062 0.308594 L 35.640625 0.308594 L 35.640625 26 L 12.414062 26 Z M 12.414062 0.308594 " clip-rule="nonzero"/></clipPath><clipPath id="a276b44959"><path d="M 17 19 L 35.640625 19 L 35.640625 29 L 17 29 Z M 17 19 " clip-rule="nonzero"/></clipPath></defs><g clip-path="url(#0622772b33)"><path stroke-linecap="butt" transform="matrix(0.725806, 0, 0, 0.725806, 1.682081, -8.658171)" fill="none" stroke-linejoin="miter" d="M 27.713719 38.924871 C 27.417712 39.134767 27.121705 39.344663 26.825698 39.565323 C 24.441496 41.352129 22.853822 43.693275 22.051913 46.588761 " stroke="#8e7ffe" stroke-width="2" stroke-opacity="1" stroke-miterlimit="4"/></g><g clip-path="url(#3e01127520)"><path fill="#35383f" d="M 21.796875 19.59375 C 21.582031 19.746094 21.367188 19.898438 21.152344 20.058594 C 19.421875 21.355469 18.269531 23.054688 17.6875 25.15625 C 16.597656 24.246094 15.671875 23.195312 14.90625 22.007812 C 13.242188 19.421875 12.511719 16.585938 12.710938 13.503906 C 13.089844 7.679688 17.140625 2.699219 22.710938 1.0625 C 25.277344 0.304688 27.921875 0.304688 30.511719 1.050781 C 32.160156 1.523438 33.726562 2.328125 35.214844 3.460938 C 35.570312 3.726562 35.433594 4.09375 35.3125 4.433594 C 34.648438 6.300781 33.464844 7.835938 31.761719 9.042969 C 31.574219 9.175781 31.382812 9.179688 31.183594 9.050781 C 30.816406 8.8125 30.507812 8.53125 30.109375 8.316406 C 29.507812 7.988281 28.964844 7.761719 28.484375 7.636719 C 27.753906 7.445312 26.886719 7.378906 25.882812 7.441406 C 25.304688 7.480469 24.734375 7.609375 24.175781 7.832031 C 22.480469 8.5 21.210938 9.621094 20.367188 11.195312 C 20.117188 11.65625 19.914062 12.214844 19.75 12.871094 C 19.617188 13.402344 19.558594 13.960938 19.574219 14.546875 C 19.621094 16.503906 20.363281 18.183594 21.796875 19.59375 Z M 21.796875 19.59375 " fill-opacity="1" fill-rule="nonzero"/></g><path fill="#2f3522" d="M 30.960938 14.453125 C 30.960938 14.738281 30.933594 15.019531 30.875 15.300781 C 30.820312 15.578125 30.738281 15.851562 30.628906 16.113281 C 30.519531 16.375 30.386719 16.625 30.230469 16.863281 C 30.070312 17.097656 29.890625 17.316406 29.691406 17.519531 C 29.488281 17.71875 29.269531 17.898438 29.035156 18.058594 C 28.796875 18.214844 28.546875 18.347656 28.285156 18.457031 C 28.023438 18.566406 27.75 18.648438 27.472656 18.703125 C 27.191406 18.761719 26.910156 18.789062 26.625 18.789062 C 26.339844 18.789062 26.058594 18.761719 25.78125 18.703125 C 25.5 18.648438 25.230469 18.566406 24.96875 18.457031 C 24.703125 18.347656 24.453125 18.214844 24.21875 18.058594 C 23.980469 17.898438 23.761719 17.71875 23.5625 17.519531 C 23.359375 17.316406 23.179688 17.097656 23.023438 16.863281 C 22.863281 16.625 22.730469 16.375 22.621094 16.113281 C 22.511719 15.851562 22.429688 15.578125 22.375 15.300781 C 22.320312 15.019531 22.292969 14.738281 22.292969 14.453125 C 22.292969 14.167969 22.320312 13.886719 22.375 13.609375 C 22.429688 13.328125 22.511719 13.058594 22.621094 12.796875 C 22.730469 12.53125 22.863281 12.28125 23.023438 12.046875 C 23.179688 11.808594 23.359375 11.589844 23.5625 11.390625 C 23.761719 11.1875 23.980469 11.007812 24.21875 10.851562 C 24.453125 10.691406 24.703125 10.558594 24.96875 10.449219 C 25.230469 10.339844 25.5 10.257812 25.78125 10.203125 C 26.058594 10.148438 26.339844 10.121094 26.625 10.121094 C 26.910156 10.121094 27.191406 10.148438 27.472656 10.203125 C 27.75 10.257812 28.023438 10.339844 28.285156 10.449219 C 28.546875 10.558594 28.796875 10.691406 29.035156 10.851562 C 29.269531 11.007812 29.488281 11.1875 29.691406 11.390625 C 29.890625 11.589844 30.070312 11.808594 30.230469 12.046875 C 30.386719 12.28125 30.519531 12.53125 30.628906 12.796875 C 30.738281 13.058594 30.820312 13.328125 30.875 13.609375 C 30.933594 13.886719 30.960938 14.167969 30.960938 14.453125 Z M 30.960938 14.453125 " fill-opacity="1" fill-rule="nonzero"/><g clip-path="url(#a276b44959)"><path fill="#2f3522" d="M 21.796875 19.59375 C 21.953125 19.707031 22.109375 19.824219 22.261719 19.949219 C 23.898438 21.269531 25.914062 21.738281 27.992188 21.355469 C 29.167969 21.136719 30.238281 20.574219 31.191406 19.820312 C 31.421875 19.640625 31.609375 19.738281 31.820312 19.882812 C 33.539062 21.09375 34.734375 22.710938 35.40625 24.734375 C 35.507812 25.042969 35.441406 25.285156 35.195312 25.476562 C 33.609375 26.691406 31.890625 27.53125 30.046875 27.988281 C 25.898438 29.015625 21.535156 28.140625 18.140625 25.566406 C 17.972656 25.441406 17.820312 25.304688 17.6875 25.15625 C 18.269531 23.054688 19.421875 21.355469 21.152344 20.058594 C 21.367188 19.898438 21.582031 19.746094 21.796875 19.59375 Z M 21.796875 19.59375 " fill-opacity="1" fill-rule="nonzero"/></g></svg>